<svg width="20" height="20" viewBox="0 0 20 20" fill="none" xmlns="http://www.w3.org/2000/svg">
<path d="M4.72496 18.8583V19.3583C5.0011 19.3583 5.22496 19.1344 5.22496 18.8583H4.72496ZM0.674959 18.8583H0.174959C0.174959 19.1344 0.398817 19.3583 0.674959 19.3583V18.8583ZM0.674959 7.24993V6.74993C0.398817 6.74993 0.174959 6.97379 0.174959 7.24993H0.674959ZM4.72496 7.24993H5.22496C5.22496 6.97379 5.0011 6.74993 4.72496 6.74993V7.24993ZM13.1333 11.0332V11.5332C13.4094 11.5332 13.6333 11.3094 13.6333 11.0332H13.1333ZM11.35 18.8582V19.3582C11.6261 19.3582 11.85 19.1344 11.85 18.8582H11.35ZM7.09163 18.8582H6.59163C6.59163 19.1344 6.81549 19.3582 7.09163 19.3582V18.8582ZM7.09163 7.24989V6.74989C6.81549 6.74989 6.59163 6.97375 6.59163 7.24989H7.09163ZM11.35 7.24989H11.85C11.85 6.97375 11.6261 6.74989 11.35 6.74989V7.24989ZM11.35 8.57489H10.85C10.85 8.7696 10.963 8.9466 11.1396 9.02851C11.3163 9.11041 11.5244 9.08232 11.673 8.95651L11.35 8.57489ZM14.9166 7.24156V6.74152L14.9101 6.7416L14.9166 7.24156ZM19.3916 18.8582V19.3582C19.6678 19.3582 19.8916 19.1344 19.8916 18.8582H19.3916ZM14.9166 18.8582H14.4166C14.4166 19.1344 14.6405 19.3582 14.9166 19.3582V18.8582ZM14.9166 12.8166L14.4166 12.8142V12.8166H14.9166ZM13.1333 11.0249L13.1333 10.5249C12.8572 10.5249 12.6333 10.7488 12.6333 11.0249H13.1333ZM4.79997 3.23324H5.29997C5.29997 2.95709 5.07611 2.73324 4.79997 2.73324V3.23324ZM2.71663 1.1499L2.72063 0.649902H2.71663V1.1499ZM4.7833 3.23324L4.2833 3.23322C4.2833 3.36583 4.33597 3.49301 4.42974 3.58678C4.52351 3.68056 4.65069 3.73324 4.7833 3.73324V3.23324ZM4.72496 18.3583H0.674959V19.3583H4.72496V18.3583ZM1.17496 18.8583V7.24993H0.174959V18.8583H1.17496ZM0.674959 7.74993H4.72496V6.74993H0.674959V7.74993ZM4.22496 7.24993V18.8583H5.22496V7.24993H4.22496ZM13.1333 10.5332C11.8723 10.5332 10.85 11.5555 10.85 12.8166H11.85C11.85 12.1078 12.4245 11.5332 13.1333 11.5332V10.5332ZM10.85 12.8166V18.8582H11.85V12.8166H10.85ZM11.35 18.3582H7.09163V19.3582H11.35V18.3582ZM7.59163 18.8582V7.24989H6.59163V18.8582H7.59163ZM7.09163 7.74989H11.35V6.74989H7.09163V7.74989ZM10.85 7.24989V8.57489H11.85V7.24989H10.85ZM11.673 8.95651C12.5825 8.18655 13.7316 7.757 14.9231 7.74152L14.9101 6.7416C13.4865 6.7601 12.1136 7.27333 11.0269 8.19328L11.673 8.95651ZM14.9166 7.74156C16.1046 7.74156 17.0757 8.17657 17.7593 9.00383C18.452 9.84194 18.8916 11.1348 18.8916 12.9166H19.8916C19.8916 10.9816 19.4146 9.43701 18.5302 8.36679C17.6367 7.28571 16.3703 6.74156 14.9166 6.74156V7.74156ZM18.8916 12.9166V18.8582H19.8916V12.9166H18.8916ZM19.3916 18.3582H14.9166V19.3582H19.3916V18.3582ZM15.4166 18.8582V12.8166H14.4166V18.8582H15.4166ZM15.4166 12.8189C15.4195 12.2115 15.1802 11.628 14.7516 11.1974L14.0429 11.9029C14.2837 12.1449 14.4182 12.4728 14.4166 12.8142L15.4166 12.8189ZM14.7516 11.1974C14.3231 10.7669 13.7407 10.5249 13.1333 10.5249L13.1333 11.5249C13.4747 11.5249 13.802 11.6609 14.0429 11.9029L14.7516 11.1974ZM12.6333 11.0249V11.0332H13.6333V11.0249H12.6333ZM4.29997 3.23324C4.29997 4.10769 3.59108 4.81657 2.71663 4.81657V5.81657C4.14337 5.81657 5.29997 4.65997 5.29997 3.23324H4.29997ZM2.71663 4.81657C1.84218 4.81657 1.1333 4.10769 1.1333 3.23324H0.133301C0.133301 4.65997 1.2899 5.81657 2.71663 5.81657V4.81657ZM1.1333 3.23324C1.1333 2.35878 1.84218 1.6499 2.71663 1.6499V0.649902C1.2899 0.649902 0.133301 1.8065 0.133301 3.23324H1.1333ZM2.71263 1.64989C3.58213 1.65684 4.28333 2.36369 4.2833 3.23322L5.2833 3.23325C5.28335 1.81455 4.13929 0.661268 2.72063 0.649918L2.71263 1.64989ZM4.7833 3.73324H4.79997V2.73324H4.7833V3.73324Z" fill="white"/>
<path d="M4.72496 18.8583V19.3583C5.0011 19.3583 5.22496 19.1344 5.22496 18.8583H4.72496ZM0.674959 18.8583H0.174959C0.174959 19.1344 0.398817 19.3583 0.674959 19.3583V18.8583ZM0.674959 7.24993V6.74993C0.398817 6.74993 0.174959 6.97379 0.174959 7.24993H0.674959ZM4.72496 7.24993H5.22496C5.22496 6.97379 5.0011 6.74993 4.72496 6.74993V7.24993ZM13.1333 11.0332V11.5332C13.4094 11.5332 13.6333 11.3094 13.6333 11.0332H13.1333ZM11.35 18.8582V19.3582C11.6261 19.3582 11.85 19.1344 11.85 18.8582H11.35ZM7.09163 18.8582H6.59163C6.59163 19.1344 6.81549 19.3582 7.09163 19.3582V18.8582ZM7.09163 7.24989V6.74989C6.81549 6.74989 6.59163 6.97375 6.59163 7.24989H7.09163ZM11.35 7.24989H11.85C11.85 6.97375 11.6261 6.74989 11.35 6.74989V7.24989ZM11.35 8.57489H10.85C10.85 8.7696 10.963 8.9466 11.1396 9.02851C11.3163 9.11041 11.5244 9.08232 11.673 8.95651L11.35 8.57489ZM14.9166 7.24156V6.74152L14.9101 6.7416L14.9166 7.24156ZM19.3916 18.8582V19.3582C19.6678 19.3582 19.8916 19.1344 19.8916 18.8582H19.3916ZM14.9166 18.8582H14.4166C14.4166 19.1344 14.6405 19.3582 14.9166 19.3582V18.8582ZM14.9166 12.8166L14.4166 12.8142V12.8166H14.9166ZM13.1333 11.0249L13.1333 10.5249C12.8572 10.5249 12.6333 10.7488 12.6333 11.0249H13.1333ZM4.79997 3.23324H5.29997C5.29997 2.95709 5.07611 2.73324 4.79997 2.73324V3.23324ZM2.71663 1.1499L2.72063 0.649902H2.71663V1.1499ZM4.7833 3.23324L4.2833 3.23322C4.2833 3.36583 4.33597 3.49301 4.42974 3.58678C4.52351 3.68056 4.65069 3.73324 4.7833 3.73324V3.23324ZM4.72496 18.3583H0.674959V19.3583H4.72496V18.3583ZM1.17496 18.8583V7.24993H0.174959V18.8583H1.17496ZM0.674959 7.74993H4.72496V6.74993H0.674959V7.74993ZM4.22496 7.24993V18.8583H5.22496V7.24993H4.22496ZM13.1333 10.5332C11.8723 10.5332 10.85 11.5555 10.85 12.8166H11.85C11.85 12.1078 12.4245 11.5332 13.1333 11.5332V10.5332ZM10.85 12.8166V18.8582H11.85V12.8166H10.85ZM11.35 18.3582H7.09163V19.3582H11.35V18.3582ZM7.59163 18.8582V7.24989H6.59163V18.8582H7.59163ZM7.09163 7.74989H11.35V6.74989H7.09163V7.74989ZM10.85 7.24989V8.57489H11.85V7.24989H10.85ZM11.673 8.95651C12.5825 8.18655 13.7316 7.757 14.9231 7.74152L14.9101 6.7416C13.4865 6.7601 12.1136 7.27333 11.0269 8.19328L11.673 8.95651ZM14.9166 7.74156C16.1046 7.74156 17.0757 8.17657 17.7593 9.00383C18.452 9.84194 18.8916 11.1348 18.8916 12.9166H19.8916C19.8916 10.9816 19.4146 9.43701 18.5302 8.36679C17.6367 7.28571 16.3703 6.74156 14.9166 6.74156V7.74156ZM18.8916 12.9166V18.8582H19.8916V12.9166H18.8916ZM19.3916 18.3582H14.9166V19.3582H19.3916V18.3582ZM15.4166 18.8582V12.8166H14.4166V18.8582H15.4166ZM15.4166 12.8189C15.4195 12.2115 15.1802 11.628 14.7516 11.1974L14.0429 11.9029C14.2837 12.1449 14.4182 12.4728 14.4166 12.8142L15.4166 12.8189ZM14.7516 11.1974C14.3231 10.7669 13.7407 10.5249 13.1333 10.5249L13.1333 11.5249C13.4747 11.5249 13.802 11.6609 14.0429 11.9029L14.7516 11.1974ZM12.6333 11.0249V11.0332H13.6333V11.0249H12.6333ZM4.29997 3.23324C4.29997 4.10769 3.59108 4.81657 2.71663 4.81657V5.81657C4.14337 5.81657 5.29997 4.65997 5.29997 3.23324H4.29997ZM2.71663 4.81657C1.84218 4.81657 1.1333 4.10769 1.1333 3.23324H0.133301C0.133301 4.65997 1.2899 5.81657 2.71663 5.81657V4.81657ZM1.1333 3.23324C1.1333 2.35878 1.84218 1.6499 2.71663 1.6499V0.649902C1.2899 0.649902 0.133301 1.8065 0.133301 3.23324H1.1333ZM2.71263 1.64989C3.58213 1.65684 4.28333 2.36369 4.2833 3.23322L5.2833 3.23325C5.28335 1.81455 4.13929 0.661268 2.72063 0.649918L2.71263 1.64989ZM4.7833 3.73324H4.79997V2.73324H4.7833V3.73324Z" fill="url(#paint0_linear)"/>
<defs>
<linearGradient id="paint0_linear" x1="10.0125" y1="1.1499" x2="10.0125" y2="18.8582" gradientUnits="userSpaceOnUse">
<stop stop-color="white"/>
<stop offset="1" stop-color="white" stop-opacity="0"/>
</linearGradient>
</defs>
</svg>
