<svg width="20" height="16" viewBox="0 0 20 16" fill="none" xmlns="http://www.w3.org/2000/svg">
<path fill-rule="evenodd" clip-rule="evenodd" d="M19.3167 3.59172L17.5666 2.84172L18.4833 0.841715L16.35 1.55005C15.6705 0.916656 14.7789 0.560003 13.85 0.550049C11.7808 0.554632 10.1046 2.23088 10.1 4.30005V5.13338C7.14998 5.74172 4.57498 4.13338 2.18332 1.38338C1.76665 3.6056 2.18332 5.27227 3.43332 6.38338L0.69165 5.96672C0.910254 7.78836 2.40178 9.19215 4.23332 9.30005L1.94165 10.1334C2.77498 11.8 4.29165 12.0584 6.31665 12.2167C4.6615 13.3456 2.69463 13.9284 0.69165 13.8834C11.325 18.6084 17.5666 11.6667 17.5666 5.55005V4.85838L19.3167 3.59172Z" stroke="white" stroke-linecap="round" stroke-linejoin="round"/>
<path fill-rule="evenodd" clip-rule="evenodd" d="M19.3167 3.59172L17.5666 2.84172L18.4833 0.841715L16.35 1.55005C15.6705 0.916656 14.7789 0.560003 13.85 0.550049C11.7808 0.554632 10.1046 2.23088 10.1 4.30005V5.13338C7.14998 5.74172 4.57498 4.13338 2.18332 1.38338C1.76665 3.6056 2.18332 5.27227 3.43332 6.38338L0.69165 5.96672C0.910254 7.78836 2.40178 9.19215 4.23332 9.30005L1.94165 10.1334C2.77498 11.8 4.29165 12.0584 6.31665 12.2167C4.6615 13.3456 2.69463 13.9284 0.69165 13.8834C11.325 18.6084 17.5666 11.6667 17.5666 5.55005V4.85838L19.3167 3.59172Z" stroke="url(#paint0_linear)" stroke-linecap="round" stroke-linejoin="round"/>
<defs>
<linearGradient id="paint0_linear" x1="10.0042" y1="0.550049" x2="10.0042" y2="15.4441" gradientUnits="userSpaceOnUse">
<stop stop-color="white"/>
<stop offset="1" stop-color="white" stop-opacity="0"/>
</linearGradient>
</defs>
</svg>
